<mxfile host="app.diagrams.net" modified="2024-06-13T09:34:56.895Z" agent="Mozilla/5.0 (Windows NT 10.0; Win64; x64) AppleWebKit/537.36 (KHTML, like Gecko) Chrome/125.0.0.0 Safari/537.36" version="24.5.3" etag="HKZrxQDsyaevJbGbnkPW" type="github">
  <diagram name="第 1 页" id="B0hA07l-jYR6jLcd7Q0O">
    <mxGraphModel>
      <root>
        <mxCell id="0" />
        <mxCell id="1" parent="0" />
      </root>
    </mxGraphModel>
  </diagram>
</mxfile>
